<?xml version="1.0" standalone="no"?>
<!DOCTYPE svg PUBLIC "-//W3C//DTD SVG 20010904//EN"
 "http://www.w3.org/TR/2001/REC-SVG-20010904/DTD/svg10.dtd">
<svg version="1.0" xmlns="http://www.w3.org/2000/svg"
 width="300.000000pt" height="300.000000pt" viewBox="0 0 300.000000 300.000000"
 preserveAspectRatio="xMidYMid meet">
<metadata>
Created by potrace 1.10, written by Peter Selinger 2001-2011
</metadata>
<g transform="translate(0.000000,300.000000) scale(0.050000,-0.050000)"
fill="#000000" stroke="none">
<path d="M2440 4442 c0 -339 7 -562 19 -562 10 0 51 19 90 42 l71 42 0 358 c0
197 4 358 10 358 5 0 70 -39 145 -86 74 -47 227 -139 339 -205 l205 -119 -7
-350 c-12 -560 -3 -626 91 -679 l78 -44 -6 594 c-4 504 -10 597 -35 612 -80
44 -897 534 -945 565 l-55 37 0 -563z"/>
<path d="M4080 4365 c-1 -8 -1 -540 0 -1181 l1 -1166 -96 6 -95 6 -2 436 -2
436 -138 81 c-76 45 -205 120 -288 166 -82 47 -248 145 -367 218 -119 73 -225
133 -235 133 -12 0 -19 -286 -17 -735 l2 -735 -267 0 c-223 0 -266 -5 -266
-30 0 -36 2342 -49 2364 -13 18 29 -57 78 -82 53 -11 -11 -54 -20 -96 -20
l-76 0 0 1052 c0 894 -4 1051 -28 1042 -17 -7 -32 4 -38 27 -43 166 -54 -23
-59 -1046 l-5 -1085 -5 1105 c-4 868 -10 1105 -30 1105 -20 0 -24 -227 -19
-1083 4 -732 -1 -1090 -15 -1104 -15 -15 -21 330 -21 1123 0 749 -7 1144 -20
1144 -13 0 -20 -395 -20 -1144 0 -805 -6 -1138 -21 -1123 -15 15 -19 384 -15
1184 5 920 1 1163 -19 1163 -14 0 -25 -7 -25 -15z m300 -1315 c0 -660 -7
-1010 -20 -1010 -13 0 -20 346 -20 997 0 880 5 1023 33 1023 4 0 7 -454 7
-1010z m-1007 -51 l334 -201 0 -383 0 -383 -343 -1 -344 -1 0 585 c0 322 4
585 10 585 5 0 160 -90 343 -201z"/>
<path d="M2820 4037 c-104 -67 -266 -165 -360 -217 -93 -52 -276 -158 -406
-236 l-236 -141 -4 -271 c-2 -150 -1 -272 2 -272 3 0 42 20 85 45 l79 45 0
171 0 170 415 250 c509 306 468 294 453 126 l-12 -137 92 -55 92 -54 0 304 c0
168 6 325 13 350 17 65 -2 58 -213 -78z"/>
<path d="M2114 3008 c-141 -91 -264 -168 -273 -172 -26 -10 -47 -196 -22 -196
12 0 69 30 126 67 58 37 178 110 268 161 l163 94 7 101 c9 132 24 135 -269
-55z"/>
<path d="M2270 2782 c-44 -31 -125 -81 -180 -110 -268 -144 -281 -156 -285
-260 -5 -117 -11 -118 258 49 124 77 247 146 272 152 40 10 45 24 45 119 0
124 -3 125 -110 50z"/>
<path d="M4547 2500 c-39 -72 -40 -81 -11 -122 28 -41 28 -44 -1 -33 -34 13
-60 -26 -38 -59 7 -11 27 -25 43 -31 20 -8 15 -12 -15 -13 -62 -3 -56 -44 16
-113 46 -44 65 -52 77 -33 9 15 24 25 34 23 41 -8 64 3 76 36 6 19 18 47 24
62 10 22 4 22 -32 3 -67 -36 -94 6 -31 47 71 47 64 73 -22 73 l-72 0 54 43
c47 37 51 46 23 61 -18 10 -32 34 -32 55 0 80 -49 81 -93 1z"/>
<path d="M2350 2520 c-17 -27 -476 -300 -506 -300 -13 0 -25 -2 -25 -5 -11
-45 -19 -186 -11 -206 7 -19 94 24 291 144 l281 170 0 109 c0 107 -6 126 -30
88z"/>
<path d="M1700 1733 c0 -18 9 -33 20 -33 11 0 20 -31 20 -69 0 -38 -9 -74 -20
-81 -46 -29 -13 -50 78 -50 112 0 164 40 128 98 -12 20 -15 47 -5 64 28 51
-13 83 -119 93 -85 8 -102 5 -102 -22z m170 -153 c0 -16 -16 -32 -35 -36 -25
-5 -35 6 -35 36 0 30 10 41 35 36 19 -4 35 -20 35 -36z"/>
<path d="M1960 1731 c0 -16 10 -35 22 -42 21 -13 16 -81 -13 -154 -11 -28 -3
-35 39 -35 52 0 69 27 32 50 -24 15 -27 90 -4 90 9 0 32 -31 50 -70 48 -100
94 -93 94 15 0 47 6 106 13 132 11 40 6 46 -35 40 -40 -6 -47 -17 -42 -67 l6
-60 -41 65 c-41 66 -121 90 -121 36z"/>
<path d="M2266 1647 c-29 -65 -57 -124 -62 -132 -4 -8 16 -15 45 -15 39 0 51
9 47 34 -4 20 9 38 29 42 24 5 35 -6 35 -35 0 -30 13 -41 50 -41 60 0 60 -12
2 131 -62 153 -80 155 -146 16z"/>
<path d="M2525 1730 c-57 -40 -61 -149 -8 -197 54 -49 203 -45 203 5 0 21 5
53 12 70 10 25 -1 32 -50 32 -61 0 -82 -25 -42 -50 12 -7 15 -21 9 -31 -20
-32 -67 -21 -89 22 -43 80 28 168 88 108 41 -41 56 -36 48 16 -8 57 -105 71
-171 25z"/>
<path d="M2754 1747 c-8 -7 -4 -25 9 -40 13 -16 18 -65 12 -117 -10 -88 -9
-90 47 -90 57 0 77 26 38 50 -37 23 -21 50 30 50 51 0 67 -27 30 -50 -48 -30
-12 -50 90 -50 97 0 110 5 110 40 0 27 13 40 41 40 33 0 39 -9 29 -40 -11 -34
-4 -40 50 -40 35 0 60 7 56 15 -5 8 -33 67 -62 132 -65 138 -91 137 -142 -4
-53 -146 -102 -142 -86 7 11 104 9 110 -34 110 -58 0 -77 -20 -50 -52 25 -31
8 -68 -32 -68 -40 0 -57 37 -32 68 27 32 9 52 -48 52 -24 0 -49 -6 -56 -13z"/>
<path d="M3295 1748 c-7 -7 10 -43 38 -80 37 -49 48 -81 39 -118 -12 -45 -7
-50 48 -50 59 0 80 26 40 50 -31 19 -24 42 30 106 63 75 63 104 0 104 -39 0
-48 -9 -45 -43 3 -23 -7 -47 -22 -52 -18 -6 -24 5 -20 38 7 47 -73 80 -108 45z"/>
<path d="M3704 1736 c-45 -45 -26 -95 46 -125 39 -16 70 -38 70 -50 0 -31 -51
-25 -80 9 -36 44 -60 37 -60 -18 0 -37 13 -49 58 -56 149 -22 205 100 71 156
-39 16 -65 38 -58 50 8 13 31 8 63 -13 57 -37 68 -33 54 22 -12 46 -126 63
-164 25z"/>
<path d="M3911 1741 c-6 -10 -3 -24 9 -31 26 -16 26 -122 -1 -171 -18 -35 -14
-39 41 -39 55 0 60 5 48 50 -10 42 -5 50 32 50 37 0 42 -8 32 -50 -12 -49 -10
-50 99 -50 103 0 111 3 99 40 -10 31 -4 40 30 40 34 0 40 -9 30 -40 -12 -37
-4 -40 119 -40 131 0 152 11 107 56 -13 13 -16 30 -8 39 8 8 33 -10 55 -40 22
-30 58 -55 79 -55 49 0 48 24 -3 71 -35 32 -36 39 -10 54 88 49 8 135 -125
135 l-79 0 3 -109 c3 -143 -27 -147 -82 -11 -57 145 -91 149 -138 16 -46 -128
-95 -142 -104 -31 -4 43 3 75 15 75 11 0 21 14 21 30 0 20 -20 30 -62 30 -58
0 -60 -3 -48 -60 11 -52 8 -60 -30 -60 -38 0 -41 8 -30 60 13 61 -67 94 -99
41z m714 -71 c-7 -30 -70 -24 -81 7 -6 18 6 24 39 20 26 -4 45 -16 42 -27z"/>
</g>
</svg>
